<svg class="svg-icon" style="width: 1em;height: 1em;vertical-align: middle;fill: currentColor;overflow: hidden;" viewBox="0 0 1024 1024" version="1.1" xmlns="http://www.w3.org/2000/svg">
  <path
     d="M 448.15099,682.66667 A 100.08838,170.66667 0 0 1 375.3367,629.76 a 53.046839,90.453333 0 0 0 -39.78513,-32.42667 52.296176,89.173333 0 0 0 -39.78513,31.57334 100.08838,170.66667 0 0 1 -145.62858,0 52.796618,90.026667 0 0 0 -39.78513,-31.57334 25.022094,42.666667 0 1 1 0,-85.33333 102.34036,174.50667 0 0 1 72.81429,52.90667 51.795734,88.32 0 0 0 79.32004,0 100.08838,170.66667 0 0 1 145.8788,0 52.045955,88.746667 0 0 0 79.57026,0 101.83992,173.65333 0 0 1 72.8143,-52.90667 25.022094,42.666667 0 0 1 0,85.33333 52.796618,90.026667 0 0 0 -39.78513,31.57334 102.34036,174.50667 0 0 1 -72.8143,53.76 z m 0,213.33333 A 100.08838,170.66667 0 0 1 375.3367,843.09333 53.046839,90.453333 0 0 0 335.55157,810.66667 52.296176,89.173333 0 0 0 295.76644,842.24 a 100.08838,170.66667 0 0 1 -145.62858,0 52.796618,90.026667 0 0 0 -39.78513,-31.57333 25.022096,42.66667 0 0 1 0,-85.33334 102.34036,174.50667 0 0 1 72.81429,52.90667 51.795734,88.32 0 0 0 79.32004,0 100.08838,170.66667 0 0 1 145.8788,0 52.045955,88.746667 0 0 0 79.57026,0 101.83992,173.65333 0 0 1 72.8143,-52.90667 25.022096,42.66667 0 0 1 0,85.33334 A 52.796618,90.026667 0 0 0 520.96529,842.24 102.34036,174.50667 0 0 1 448.15099,896 Z"
     fill="#309ffb"
     id="path1"
     style="stroke-width:0.765804" />
  <path
     d="m 335.13226,140.15245 a 42.666667,42.666667 0 0 1 30.29333,12.37334 l 128,128 a 42.841242,42.841242 0 0 1 -60.58666,60.58666 l -97.70667,-98.13333 -97.70667,98.13333 a 42.841242,42.841242 0 1 1 -60.58666,-60.58666 l 128,-128 a 42.666667,42.666667 0 0 1 30.29333,-12.37334 z"
     fill="#fe9517"
     id="path2" />
  <path
     d="m 335.13226,182.81912 a 42.666667,42.666667 0 0 1 42.66667,42.66667 v 170.66666 a 42.66667,42.66667 0 0 1 -85.33334,0 V 225.48579 a 42.666667,42.666667 0 0 1 42.66667,-42.66667 z"
     fill="#fe9517"
     id="path3" />
</svg>
