<?xml version="1.0" encoding="UTF-8" standalone="no"?>
<svg
   class="svg-icon"
   style="overflow:hidden;fill:currentColor"
   viewBox="0 0 945 1024"
   version="1.1"
   id="svg3"
   sodipodi:docname="high-tide.svg"
   width="945"
   height="1024"
   inkscape:version="1.3.2 (091e20e, 2023-11-25, custom)"
   xmlns:inkscape="http://www.inkscape.org/namespaces/inkscape"
   xmlns:sodipodi="http://sodipodi.sourceforge.net/DTD/sodipodi-0.dtd"
   xmlns="http://www.w3.org/2000/svg"
   xmlns:svg="http://www.w3.org/2000/svg">
  <defs
     id="defs3" />
  <sodipodi:namedview
     id="namedview3"
     pagecolor="#ffffff"
     bordercolor="#000000"
     borderopacity="0.25"
     inkscape:showpageshadow="2"
     inkscape:pageopacity="0.0"
     inkscape:pagecheckerboard="0"
     inkscape:deskcolor="#d1d1d1"
     showguides="true"
     inkscape:zoom="0.81552061"
     inkscape:cx="511.32981"
     inkscape:cy="434.69165"
     inkscape:window-width="3440"
     inkscape:window-height="1377"
     inkscape:window-x="-8"
     inkscape:window-y="-8"
     inkscape:window-maximized="1"
     inkscape:current-layer="svg3">
    <sodipodi:guide
       position="469.63865,1146.6211"
       orientation="1,0"
       id="guide3"
       inkscape:locked="false" />
  </sodipodi:namedview>
  <path
     d="m 683.27919,794.57368 a 187.91256,182.1238 0 0 1 -136.7064,-56.45837 99.593656,96.525617 0 0 0 -74.69524,-34.60353 98.18431,95.159688 0 0 0 -74.69523,33.69289 187.91256,182.1238 0 0 1 -273.41278,0 99.123873,96.070307 0 0 0 -74.695232,-33.69289 46.978145,45.530958 0 1 1 0,-91.06191 192.14059,186.22159 0 0 1 136.706402,56.45837 97.244748,94.24907 0 0 0 148.92069,0 187.91256,182.1238 0 0 1 273.88256,0 97.714531,94.704379 0 0 0 149.39047,0 191.20102,185.31097 0 0 1 136.70638,-56.45837 46.978145,45.530958 0 0 1 0,91.06191 99.123873,96.070307 0 0 0 -74.69524,33.69289 192.14059,186.22159 0 0 1 -136.70638,57.36901 z m 0,227.65472 a 187.91256,182.1238 0 0 1 -136.7064,-56.45834 99.593656,96.525617 0 0 0 -74.69524,-34.60353 98.18431,95.159688 0 0 0 -74.69523,33.69291 187.91256,182.1238 0 0 1 -273.41278,0 99.123873,96.070307 0 0 0 -74.695232,-33.69291 46.978139,45.530953 0 0 1 0,-91.06189 192.14059,186.22159 0 0 1 136.706402,56.45837 97.244748,94.24907 0 0 0 148.92069,0 187.91256,182.1238 0 0 1 273.88256,0 97.714531,94.704379 0 0 0 149.39047,0 191.20102,185.31097 0 0 1 136.70638,-56.45837 46.978139,45.530953 0 0 1 0,91.06189 99.123873,96.070307 0 0 0 -74.69524,33.69291 192.14059,186.22159 0 0 1 -136.70638,57.36896 z"
     fill="#309ffb"
     id="path1"
     style="stroke-width:1.08396" />
  <path
     d="M 470.55772,3.7284379 A 67.113739,75.795422 0 0 1 518.20847,25.709098 L 719.54971,253.09536 a 67.388351,76.105559 0 0 1 -95.30154,107.6295 L 470.55772,186.39539 316.86726,360.72486 a 67.388345,76.105549 0 1 1 -95.3015,-107.6295 L 422.90697,25.709098 A 67.113739,75.795422 0 0 1 470.55772,3.7284379 Z"
     fill="#fe9517"
     id="path2"
     style="stroke-width:0.806044" />
  <path
     d="m 470.55772,79.523848 a 67.113739,75.795422 0 0 1 67.11373,75.795432 v 303.18169 a 67.11374,75.795423 0 0 1 -134.22748,0 V 155.31928 a 67.113739,75.795422 0 0 1 67.11375,-75.795432 z"
     fill="#fe9517"
     id="path3"
     style="stroke-width:0.806044" />
</svg>
